<svg data-v-423bf9ae="" xmlns="http://www.w3.org/2000/svg" viewBox="0 0 314.97791450386956 60" class="font"><!----><!----><defs data-v-423bf9ae=""><linearGradient data-v-423bf9ae="" gradientTransform="rotate(25)" id="a3c2516f-fbd9-4f1d-a997-ccfe85562aa8" x1="0%" y1="0%" x2="100%" y2="0%"><stop data-v-423bf9ae="" offset="0%" style="stop-color: rgb(87, 72, 81); stop-opacity: 1;"></stop><stop data-v-423bf9ae="" offset="100%" style="stop-color: rgb(149, 168, 177); stop-opacity: 1;"></stop></linearGradient></defs><g data-v-423bf9ae="" id="82757aff-0351-435b-b147-7509f4bea93e" fill="url(#a3c2516f-fbd9-4f1d-a997-ccfe85562aa8)" transform="matrix(4.4182621750432,0,0,4.4182621750432,-2.9602346837914126,-15.77319638520914)"><path d="M3.70 14.52C4.83 14.52 5.50 13.96 5.80 13.27L5.87 13.27L5.87 14.52L8.32 14.04L8.32 13.48L7.31 13.29L7.31 3.57L4.86 4.05L4.86 4.61L5.87 4.80L5.87 8.18L5.80 8.18C5.50 7.49 4.83 6.93 3.70 6.93C1.88 6.93 0.67 8.30 0.67 10.72C0.67 13.15 1.88 14.52 3.70 14.52ZM4.13 13.58C2.97 13.58 2.24 12.74 2.24 11.40L2.24 10.05C2.24 8.71 2.97 7.87 4.13 7.87C5.01 7.87 5.87 8.39 5.87 9.25L5.87 12.19C5.87 13.06 5.01 13.58 4.13 13.58ZM12.84 14.52C14.48 14.52 15.44 13.55 15.79 12.57L15.25 12.22C14.88 12.96 14.22 13.48 13.09 13.48C11.82 13.48 10.98 12.59 10.98 11.10L10.98 10.71L15.95 10.71L15.95 10.35C15.95 8.34 14.74 6.93 12.75 6.93C10.82 6.93 9.41 8.46 9.41 10.72C9.41 12.98 10.65 14.52 12.84 14.52ZM10.98 9.80C10.98 8.53 11.61 7.69 12.75 7.69C13.93 7.69 14.43 8.55 14.43 9.83L14.43 10.00L10.98 10.00ZM17.07 17.15L20.80 17.15L20.80 16.42L19.52 16.42L19.52 13.27L19.59 13.27C19.88 13.96 20.55 14.52 21.69 14.52C23.51 14.52 24.71 13.15 24.71 10.72C24.71 8.30 23.51 6.93 21.69 6.93C20.55 6.93 19.88 7.49 19.59 8.18L19.52 8.18L19.52 6.93L17.07 7.41L17.07 7.97L18.07 8.16L18.07 16.42L17.07 16.42ZM21.25 13.58C20.37 13.58 19.52 13.06 19.52 12.19L19.52 9.25C19.52 8.39 20.37 7.87 21.25 7.87C22.41 7.87 23.14 8.71 23.14 10.05L23.14 11.40C23.14 12.74 22.41 13.58 21.25 13.58ZM26.05 14.35L29.79 14.35L29.79 13.62L28.50 13.62L28.50 9.21C28.50 8.50 29.30 7.67 30.04 7.67C30.20 7.67 30.28 7.69 30.37 7.70L30.37 7.74C30.16 7.77 29.99 8.01 29.99 8.37C29.99 8.83 30.34 9.17 30.90 9.17C31.43 9.17 31.78 8.79 31.78 8.18C31.78 7.38 31.21 6.93 30.32 6.93C29.33 6.93 28.80 7.59 28.52 8.20L28.46 8.20L28.46 6.93L26.05 7.41L26.05 7.97L27.06 8.16L27.06 13.62L26.05 13.62ZM36.01 13.73C34.72 13.73 34.15 12.84 34.15 11.62L34.15 9.83C34.15 8.61 34.72 7.71 36.01 7.71C37.30 7.71 37.87 8.61 37.87 9.83L37.87 11.62C37.87 12.84 37.30 13.73 36.01 13.73ZM36.01 14.52C38.09 14.52 39.47 13.03 39.47 10.72C39.47 8.41 38.09 6.93 36.01 6.93C33.92 6.93 32.55 8.41 32.55 10.72C32.55 13.03 33.92 14.52 36.01 14.52ZM43.26 14.35L44.35 14.35L46.93 7.83L47.66 7.83L47.66 7.10L45.04 7.10L45.04 7.83L45.99 7.83L44.18 12.88L44.13 12.88L42.25 7.83L43.20 7.83L43.20 7.10L39.97 7.10L39.97 7.83L40.70 7.83ZM52.63 14.35L54.08 14.35L54.08 12.10L55.47 12.10L55.47 10.99L54.08 10.99L54.08 4.58L52.64 4.58L48.22 11.13L48.22 12.10L52.63 12.10ZM52.57 6.01L52.63 6.01L52.63 10.99L49.17 10.99ZM61.03 14.35L62.48 14.35L62.48 12.10L63.87 12.10L63.87 10.99L62.48 10.99L62.48 4.58L61.04 4.58L56.62 11.13L56.62 12.10L61.03 12.10ZM60.97 6.01L61.03 6.01L61.03 10.99L57.57 10.99ZM67.05 14.35L68.36 14.35L71.96 5.66L71.96 4.58L65.44 4.58L65.44 7.53L66.22 7.53L66.22 6.01L70.97 6.01Z"></path></g><!----><!----></svg>